<?xml version="1.0" standalone="no"?>
<!DOCTYPE svg PUBLIC "-//W3C//DTD SVG 20010904//EN"
 "http://www.w3.org/TR/2001/REC-SVG-20010904/DTD/svg10.dtd">
<svg version="1.0" xmlns="http://www.w3.org/2000/svg"
 width="202.000000pt" height="202.000000pt" viewBox="0 0 202.000000 202.000000"
 preserveAspectRatio="xMidYMid meet">
<metadata>
Created by potrace 1.11, written by Peter Selinger 2001-2013
</metadata>
<g transform="translate(0.000000,202.000000) scale(0.100000,-0.100000)"
fill="#000000" stroke="none">
<path d="M770 2000 c-115 -33 -201 -92 -237 -165 -24 -47 -21 -80 9 -112 28
-30 67 -42 163 -48 44 -2 90 -7 101 -9 12 -2 37 -7 55 -10 55 -8 170 -46 224
-73 74 -38 146 -94 232 -183 43 -44 84 -80 91 -80 48 0 -82 356 -180 491 -38
53 -105 129 -114 129 -3 0 -19 9 -34 20 -77 54 -200 70 -310 40z"/>
<path d="M1622 1740 c-49 -30 -59 -91 -32 -190 7 -25 14 -54 15 -65 2 -11 7
-36 11 -55 5 -19 8 -96 8 -170 -1 -118 -4 -145 -27 -216 -15 -44 -52 -127 -83
-184 -65 -119 -62 -140 11 -100 72 39 205 143 282 219 198 197 250 375 159
549 -86 162 -254 266 -344 212z"/>
<path d="M667 1494 c-1 -1 -38 -4 -82 -7 -103 -8 -255 -47 -331 -85 -159 -80
-246 -224 -240 -395 3 -99 31 -182 77 -228 76 -76 155 -49 212 74 15 31 39 83
53 115 37 79 124 209 176 261 61 62 190 144 283 181 116 45 137 74 58 79 -68
4 -203 7 -206 5z"/>
<path d="M1006 1114 c-39 -34 -43 -59 -6 -36 11 7 22 12 25 12 3 0 4 -34 3
-75 -1 -47 3 -80 10 -87 14 -14 14 -18 16 110 0 52 -1 97 -4 102 -3 4 -23 -7
-44 -26z"/>
<path d="M614 1126 c-11 -12 -84 -170 -88 -191 -2 -5 -12 -41 -24 -79 -72
-227 -85 -442 -33 -583 59 -161 199 -261 379 -269 137 -6 232 45 248 133 11
61 -17 110 -126 216 -99 98 -190 206 -190 226 0 6 -4 11 -9 11 -11 0 -73 136
-86 190 -2 5 -15 70 -22 105 -2 11 -6 67 -9 125 -7 135 -12 149 -40 116z"/>
<path d="M1294 669 c-82 -23 -114 -133 -63 -212 33 -50 88 -65 160 -42 29 10
58 58 63 107 10 103 -66 173 -160 147z m109 -63 c18 -27 17 -117 -1 -139 -34
-40 -115 -37 -141 5 -18 28 -22 82 -9 118 21 61 115 71 151 16z"/>
<path d="M1804 673 c-12 -2 -36 -16 -52 -32 -26 -22 -33 -38 -38 -84 -6 -51
-4 -61 19 -96 68 -103 223 -59 228 66 4 100 -64 163 -157 146z m82 -48 c34
-22 49 -85 30 -128 -18 -45 -49 -65 -89 -61 -35 4 -76 43 -78 75 -1 10 -2 25
-3 32 -4 28 18 70 47 87 32 20 57 19 93 -5z"/>
<path d="M993 540 c0 -120 1 -130 18 -130 16 0 19 8 19 60 l0 61 33 -2 c17 -1
47 -1 66 0 28 1 32 3 21 16 -6 8 -28 14 -48 13 -72 -1 -72 -1 -72 42 l0 40 70
0 c56 0 70 3 70 15 0 12 -16 15 -88 15 l-89 0 0 -130z"/>
<path d="M1480 655 c0 -11 12 -15 45 -15 l45 0 0 -120 c0 -112 1 -120 18 -111
14 8 17 25 17 118 l0 108 43 3 c28 2 42 8 42 18 0 11 -20 14 -105 14 -87 0
-105 -3 -105 -15z"/>
</g>
</svg>
